<?xml version="1.0" encoding="utf-8"?>
<!-- Generator: Adobe Illustrator 24.0.2, SVG Export Plug-In . SVG Version: 6.00 Build 0)  -->
<svg version="1.1" id="Layer_1" xmlns="http://www.w3.org/2000/svg" xmlns:xlink="http://www.w3.org/1999/xlink" x="0px" y="0px"
	 width="360px" height="360px" viewBox="0 0 360 360" style="enable-background:new 0 0 360 360;" xml:space="preserve">
<style type="text/css">
	.Drop_x0020_Shadow{fill:none;}
	.Outer_x0020_Glow_x0020_5_x0020_pt{fill:none;}
	.Blue_x0020_Neon{fill:none;stroke:#8AACDA;stroke-width:7;stroke-linecap:round;stroke-linejoin:round;}
	.Chrome_x0020_Highlight{fill:url(#SVGID_1_);stroke:#FFFFFF;stroke-width:0.3629;stroke-miterlimit:1;}
	.Jive_GS{fill:#FFDD00;}
	.Alyssa_GS{fill:#A6D0E4;}
	.st0{fill:#2A1E5C;}
	.st1{fill:#F93C5A;}
</style>
<linearGradient id="SVGID_1_" gradientUnits="userSpaceOnUse" x1="0" y1="0" x2="6.123234e-17" y2="-1">
	<stop  offset="0" style="stop-color:#656565"/>
	<stop  offset="0.618" style="stop-color:#1B1B1B"/>
	<stop  offset="0.6292" style="stop-color:#545454"/>
	<stop  offset="0.9831" style="stop-color:#3E3E3E"/>
</linearGradient>
<rect x="-38.89" y="-28.46" class="st0" width="455.46" height="402.68"/>
<g>
	<path class="st1" d="M177.58,323.72c-86.4,0-148.4-64.4-148.4-144v-0.8c0-79.6,62.8-144.8,149.2-144.8c86.4,0,148.4,64.4,148.4,144
		v0.8C326.78,258.52,263.98,323.72,177.58,323.72z M262.38,178.92c0-48-35.2-88-84.8-88c-49.6,0-84,39.2-84,87.2v0.8
		c0,48,35.2,88,84.8,88c49.6,0,84-39.2,84-87.2V178.92z"/>
</g>
</svg>
