<?xml version="1.0" encoding="utf-8"?>
<!-- Generator: Adobe Illustrator 27.1.1, SVG Export Plug-In . SVG Version: 6.00 Build 0)  -->
<svg version="1.1" id="Layer_1" xmlns="http://www.w3.org/2000/svg" xmlns:xlink="http://www.w3.org/1999/xlink" x="0px" y="0px"
	 width="525.8px" height="516.1px" viewBox="0 0 525.8 516.1" style="enable-background:new 0 0 525.8 516.1;" xml:space="preserve"
	>
<style type="text/css">
	.st0{fill:#FFFFFF;}
	.st1{fill:none;}
</style>
<g id="W3KUob.tif">
	<g>
		<path class="st0" d="M467.1,459c-3.7,3-7,6-10.6,8.7c-0.5,0.4-2-0.1-2.8-0.6c-13.5-8.9-26.9-17.9-40.3-26.8
			c-0.8-0.5-1.5-1-2.9-1.8c0.5,1.5,0.8,2.4,1.2,3.3c6.3,14.7,12.6,29.5,19,44.2c0.9,2,0.6,3.1-1.1,4.4c-3.1,2.3-6,4.9-9.2,7.6
			c-3.4-4-6.6-7.9-9.8-11.8c-9-10.8-18-21.6-27-32.4c-1.3-1.5-1.3-2.3,0.3-3.6c4.5-3.6,4.4-3.7,8.1,0.8c9.3,11.2,18.6,22.4,28,33.6
			c0.4,0.4,0.8,0.8,1.7,1c-0.3-0.8-0.6-1.7-1-2.5c-6.3-14.6-12.7-29.3-19.1-43.9c-0.9-2-0.9-3.3,1-4.6c2-1.4,3.8-3,5.6-4.6
			c1.5-1.4,2.6-1.4,4.3-0.3c13.4,9.1,26.9,18.1,40.4,27.2c0.6,0.4,1.2,0.7,2.2,0.7c-0.5-0.7-1-1.4-1.6-2
			c-9.8-11.8-19.6-23.6-29.4-35.3c-1.3-1.5-1.5-2.5,0.3-3.8c1.5-1,2.8-2.3,4.4-3.6C441.6,428.3,454.3,443.5,467.1,459z"/>
		<path class="st0" d="M459.3,368.1c5.5,3.7,11.1,7.5,16.7,11.2c10.1,6.8,20.2,13.7,30.4,20.5c1.9,1.2,2.2,2.1,0.8,4.1
			c-3.8,5.4-7.3,10.9-11.1,16.3c-4.7,6.7-10.7,11.4-19.3,11.8c-2.9,0.1-5.8-0.3-8.6-1c-8.2-2.2-15-6.6-20.6-12.9
			c-7.7-8.6-8.9-18.4-3.1-28.3c4.3-7.2,9.2-14,13.9-21C458.7,368.4,458.9,368.3,459.3,368.1z M460.5,378.8c-3.2,4.8-6.4,9.2-9.1,14
			c-3.4,5.9-2.9,11.9,1.2,17.3c4.9,6.6,11.6,11,19.6,12.9c5.6,1.3,11.3,0.6,15.2-3.9c4-4.5,7.2-9.7,10.8-14.8
			C485.5,395.6,473.1,387.3,460.5,378.8z"/>
		<path class="st0" d="M75,118.7c-4.3-3.7-5.9-8.4-4.7-13.4c2.1-8.8,7.7-14.8,16.2-17.9c5.2-1.9,9.8-0.2,13.8,3.4
			c4.1,3.7,8.1,7.4,12.2,11.1c3,2.7,3.3,2.6,6.4,0.2c0.4-0.4,1.6-0.4,2.1,0c1.5,1.1,2.7,2.4,4.3,3.8c-3,3.6-5.7,7.4-11.3,6.4
			c-0.7,8.1-4.9,13.8-10.9,18.5c-3.3,2.6-7.2,3.9-11.5,3c-7.4-1.7-11.7-8.7-9-15.8c1.4-3.8,4.1-7.2,6.5-10.5c1.7-2.4,4-4.5,6-6.7
			c1.4-1.5,1.3-2.6-0.3-4c-3.2-2.7-6-3.1-9.2-0.6c-2.3,1.7-4.4,3.9-6.1,6.2c-2.1,2.9-2.3,6.1,0,9.2c0.4,0.5,0.3,1.7-0.1,2.3
			C78.1,115.4,76.7,116.9,75,118.7z M101.5,103.3c-2.7,3-5.5,5.9-8.1,9c-1.3,1.6-2.5,3.4-3.4,5.2c-1.4,2.9-1,4.9,1.1,6.8
			c2.1,1.9,4.5,2.2,7.1,0.6c3.9-2.4,6.6-5.8,7.8-10.3C107.1,110.3,105.3,105.9,101.5,103.3z"/>
		<path class="st0" d="M63,355.2c0.9-0.5,1.7-1,2.4-1.5c3.9-2.2,3.9-2.2,5.9,1.7c1.7,3.2,1.8,4.9,0.4,9c7.3,3.2,11.7,9.1,14.1,16.5
			c2.4,7.3-0.4,13.8-6.9,16.7c-4.9,2.2-10.9,0.9-14.8-4.1c-3.2-4.1-5.8-8.7-8.5-13.2c-2.4-4.1-4.5-4.4-7.2-0.4
			c-1,1.5-1.7,4.1-1.2,5.8c1.1,3.2,2.8,6.3,4.8,9.1c1.8,2.5,4.7,3.2,7.9,2.2c0.6-0.2,1.9,0.3,2.3,0.8c1.2,1.7,2,3.6,3.1,5.6
			c-4.7,3-9.3,2.7-13.9,0.5c-7.5-3.7-13.3-15.4-11.9-23.6c0.8-4.4,3.5-7.4,7.3-9.6c4.4-2.5,8.8-5,13.3-7.4
			C65.2,360.5,65.2,360.5,63,355.2z M59.3,373.7c2.6,4.4,5.3,8.9,8,13.3c0.6,0.9,1.4,1.6,2.2,2.3c2.2,1.8,4.5,2,6.7,0.6
			c2.2-1.3,3.2-3.6,2.6-6.2c-1-4.7-3.6-8.4-7.6-10.9C67.6,370.4,62.8,370.8,59.3,373.7z"/>
		<path class="st0" d="M256.5,33.9c-11.3,1.6-21.8,3-32.2,4.5c-0.2,5.3,4.7,10.4,10.4,10.5c5.3,0.1,9.9-1.4,12.3-6.7
			c0.2-0.5,0.7-1.1,1.1-1.2c2.5-0.5,5-0.8,7.8-1.2c-0.7,6.9-4.3,11.5-10,14c-15.2,6.8-28.7-0.6-31-16.7c-1.1-7.5-0.2-14.5,5.5-20.1
			c10.9-10.7,29.4-6.3,34.2,8.1C255.4,27.8,255.8,30.7,256.5,33.9z M246.6,28.7c-0.7-4.1-2.5-7.1-6-8.8c-4.6-2.1-9.1-1.6-13.1,1.5
			c-3.2,2.5-4.7,6-4.4,10.5C231,30.9,238.7,29.8,246.6,28.7z"/>
		<path class="st0" d="M213.3,59.2c-2.8,1-5.1,1.9-7.7,2.8c-0.4-0.9-0.8-1.7-1.1-2.5c-2.3-6.4-4.7-12.8-7-19.2
			c-0.2-0.6-0.4-1.3-0.7-1.9c-3-6.8-8.4-9.4-14.6-6.9c-5.7,2.2-8.4,8.5-6.2,15c2.3,6.8,4.8,13.4,7.3,20.1c1.1,3.1,1.1,3.1-1.9,4.2
			c-1.5,0.5-2.9,1-4.6,1.6c-0.4-0.9-0.7-1.6-1-2.4c-6.2-17.1-12.5-34.2-18.8-51.2c-0.8-2.1-0.5-3,1.7-3.7c5.1-1.7,5-1.8,6.9,3.2
			c1.8,4.9,3.6,9.8,5.5,15c0.5-0.6,0.8-0.9,1-1.2c6-11.5,21.5-12.7,29.2-2.3c0.8,1.1,1.6,2.2,2.1,3.4
			C206.8,41.8,210,50.4,213.3,59.2z"/>
		<path class="st0" d="M485.8,99.6c1.4,2,2.7,3.8,3.8,5.8c0.2,0.4-0.3,1.7-0.9,2c-4.5,3.1-9.1,6.2-13.6,9.2c-0.7,0.5-1.4,1-2.4,1.7
			c0.8,0.3,1.2,0.5,1.5,0.6c13.1,3.5,17.6,18.7,8.4,28.6c-1.6,1.7-3.4,3.2-5.3,4.5c-6,4.1-12,8.1-18,12.1c-0.5,0.3-1,0.6-1.7,1
			c-1.3-2-2.7-3.8-3.8-5.9c-0.2-0.4,0.5-1.6,1.1-2c5.8-4,11.7-7.9,17.6-11.9c1.4-1,2.9-2.1,4-3.3c3.6-3.9,4-8.2,1.4-12.6
			c-2.6-4.4-7.2-6.5-12.1-5.2c-1.9,0.5-3.8,1.3-5.4,2.4c-5.9,3.8-11.8,7.8-17.6,11.8c-1.4,1-2.2,1.1-3.3-0.5c-3.3-5-3.3-5,1.7-8.3
			c14.2-9.5,28.4-18.9,42.5-28.4C484,100.7,484.8,100.2,485.8,99.6z"/>
		<path class="st0" d="M135.5,88.1c-0.3-0.8-0.5-1.7-0.8-2.5c-3.3-9.9-6.6-19.9-10-29.8c-0.5-1.6-0.4-2.6,1.1-3.5
			c1.7-1.1,3.3-2.4,5.3-3.8c1.6,4.9,3,9.3,4.4,13.7c3.9,12,7.7,24,11.6,36.1c0.3,0.9,0.6,1.9,0.9,2.9c1.7,5.5,0.1,9.8-4.6,13.1
			c-2.6,1.8-5.1,3.7-7.6,5.7c-1.1,0.8-1.9,0.9-2.7-0.3c-1-1.4-2-2.8-3.3-4.5c2.5-1.9,5-3.7,7.4-5.6c4.5-3.4,4.5-6.4-0.2-9.6
			c-12.1-8.4-24.2-16.7-36.4-25.1c-0.7-0.5-1.4-1-2.5-1.8c2.3-1.7,4.2-3.4,6.4-4.7c0.5-0.3,1.9,0.3,2.6,0.8
			c8.6,6,17.1,12.1,25.7,18.1c0.7,0.5,1.4,0.9,2,1.3C135.1,88.3,135.3,88.2,135.5,88.1z"/>
		<path class="st0" d="M263.2,9.3c2.8,0.2,5.2,0.2,7.4,0.6c0.7,0.1,1.6,1.3,1.8,2.1c2.7,10.1,5.4,20.2,8.1,30.4
			c0.2,0.8,0.5,1.7,1,3.2c0.6-1.3,1-2,1.3-2.7c3.9-9.8,7.8-19.6,11.6-29.5c0.7-1.7,1.5-2.3,3.3-2.1c1.9,0.2,3.9,0,6.5,0
			c-1.5,3.7-2.7,6.7-3.9,9.7c-5.3,13-10.6,26-15.8,39c-0.3,0.7-0.6,1.4-0.9,2.1c-2.2,5.7-6.3,8.3-12.4,7.8c-3.1-0.3-6.1-0.4-9.2-0.5
			c-1.5-0.1-2-0.6-1.9-2.2c0.2-5.5,0.1-5.5,5.7-5.1c1.8,0.1,3.7,0.2,5.5,0.2c3.8,0,5.7-2.2,4.8-6c-1.4-6.1-3.2-12-4.8-18.1
			c-2.4-8.7-4.8-17.5-7.2-26.2C263.7,11.4,263.5,10.6,263.2,9.3z"/>
		<path class="st0" d="M60.8,167.9c1.2-2,2.2-4,3.5-5.9c0.2-0.4,1.2-0.6,1.6-0.4c3.8,1.3,7-0.2,9.1-3c2.1-2.7,3.6-5.9,4.8-9.1
			c1-2.6-0.2-5-2.4-6.2c-2-1.2-4.1-0.9-6.2,1.4c-2,2.1-3.6,4.6-5.5,6.7c-2.4,2.6-4.7,5.5-7.6,7.4c-6.7,4.4-15.1,0.4-16.5-7.6
			c-1.8-9.9,6.4-22.3,16-24.2c3.4-0.7,6.6,0.2,9.9,2.2c-1.2,2.1-2.4,4.2-3.7,6.1c-0.2,0.3-1.3,0.3-1.9,0.1c-2.8-1-5.3-0.3-7.4,1.5
			c-3,2.6-4.9,5.9-5.5,9.8c-0.3,2.1,0.3,4,2.3,5.1c2,1.1,3.9,0.4,5.2-1c2.2-2.3,4-4.9,6.1-7.2c2-2.3,3.9-4.6,6.1-6.6
			c3.2-2.8,7-3.7,11.1-1.9c4.3,1.9,7.7,4.9,7.9,9.7c0.1,3.4-0.6,7-1.7,10.1c-1.8,4.9-4.7,9.2-9,12.3
			C71.9,170.9,65.9,171.2,60.8,167.9z"/>
		<path class="st0" d="M382.3,467c-2.1,1-4.1,2.1-6.2,2.9c-0.4,0.2-1.4-0.1-1.7-0.5c-2.6-3.4-6.1-3.9-9.6-2.7
			c-3.1,1.1-6.1,2.9-8.8,4.9c-2.3,1.7-2.6,4.2-1.4,6.5c1.3,2.4,3.5,2.8,5.8,2.2c2.9-0.7,5.7-1.9,8.6-2.5c3.4-0.8,6.8-1.7,10.2-1.7
			c7.7,0.1,12.5,7.6,9.8,14.8c-2.8,7.3-9,10.4-15.9,12.3c-7,1.9-13.2-0.1-16.7-5.2c-0.5-0.8-0.9-1.7-1.5-2.8c2.2-1.1,4.2-2.1,6.3-3
			c0.4-0.2,1.4,0.2,1.7,0.7c2.1,3,5.1,4,8.3,2.9c2.9-1,5.8-2.5,8.3-4.2c1.8-1.3,2.9-3.5,1.6-6c-1.3-2.5-3.6-2.6-5.8-2
			c-3,0.7-5.9,1.8-8.8,2.6c-2.5,0.7-5,1.4-7.5,1.7c-4.4,0.6-8.3-0.6-10.8-4.6c-2.7-4.3-3.2-8.8-0.8-13.5
			c3.1-5.8,16.9-13.7,25.9-10.9C377.5,460.3,380.6,462.7,382.3,467z"/>
		<path class="st0" d="M525.8,251.6c0,9.6-5.3,16.8-14.5,19.4c-7.9,2.2-15.8,2.2-22.6-3c-7.7-5.9-9-14.3-7-23.1
			c1.9-8.6,8.3-13,16.6-14.3c3.9-0.6,8.2-0.6,12.1,0.2C520.3,232.5,525.9,240.4,525.8,251.6z M503.5,264c0.1,0.2,0.1,0.4,0.2,0.6
			c3.2-1.1,6.6-1.8,9.4-3.5c7.7-4.8,7.2-16.2-0.5-20.8c-5.5-3.3-14.6-2.9-19.5,1.3c-1.8,1.6-3.4,3.8-4.1,6
			C486.1,256.6,493.4,264.8,503.5,264z"/>
		<path class="st0" d="M153.7,451.2c15.9,0.3,25.9,15,19.9,29.6c-2.8,6.9-7.2,12.7-14.7,15c-8.5,2.6-15.8-0.5-21.9-6.3
			c-5.7-5.5-6.9-12.4-4.6-19.8c2.5-8,7-14.6,15.4-17.4C149.8,451.8,151.8,451.6,153.7,451.2z M154.2,459.2c-0.3,0-1.1,0.1-1.9,0.3
			c-7.5,2.1-10.9,7.8-12.3,14.9c-1,5.1,0.9,9.3,5.3,12.2c4.4,3,9,3.3,13.5,0.4c4.9-3.2,7.6-7.8,8.4-13.5
			C168.2,465.9,162.3,459.2,154.2,459.2z"/>
		<path class="st0" d="M521.4,314.8c-0.4,2.8-0.7,5.3-1.1,8.1c-14.3-2-28.3-4-42.6-6c0.2-2.1,0.4-4,0.7-5.8c0.5-2.7,3.3-0.7,4.5-2.3
			c-0.1-0.2-0.1-0.5-0.3-0.8c-3.6-4.6-3.8-9.8-2.2-15.1c2.6-9,9.7-13.3,20.2-12c7.8,0.9,15.5,2.2,23.2,3.2c1.5,0.2,2,0.6,1.7,2.2
			c-0.4,1.9-0.5,3.8-0.9,6.1c-3.5-0.5-6.9-0.9-10.3-1.4c-4.8-0.6-9.5-1.4-14.3-2c-7.1-0.9-12.2,2.8-13.1,9.1
			c-0.9,6.3,3.3,11.9,10,12.9c7,1.1,14,2,21,3C518.9,314.3,519.9,314.5,521.4,314.8z"/>
		<path class="st0" d="M113.1,474.3c-1.6-1.4-3.1-2.5-4.4-3.9c-0.4-0.4-0.5-1.3-0.3-1.9c0.3-0.9,0.9-1.7,1.4-2.8
			c-0.5-0.2-0.8-0.4-1.1-0.4C95,465.6,86.6,452,92.9,439.8c1-1.9,2.3-3.7,3.6-5.3c4.7-5.5,9.5-10.9,14.2-16.4
			c1.1-1.3,1.8-1.5,3.2-0.3c4.7,4,4.7,3.9,0.7,8.4c-3.8,4.4-7.7,8.7-11.5,13.2c-1.1,1.3-2.1,2.6-2.9,4.1c-2.4,4.4-1.9,8.6,1.2,12
			c3.5,4,7.9,5.2,12.6,3.1c2.1-1,4.1-2.5,5.7-4.3c4.8-5.2,9.4-10.6,14-16c1.2-1.4,2-1.5,3.4-0.3c4.4,3.9,4.5,3.8,0.5,8.3
			c-7.9,9-15.7,18.1-23.6,27.1C113.9,473.7,113.6,473.9,113.1,474.3z"/>
		<path class="st0" d="M181.6,480.9c3.8-7.8,12.3-11.5,21.3-9.6c13.5,2.9,19.8,12.8,16.7,26.3c-0.2,1.1-0.5,2.1-0.9,3.1
			c-6.7,19.6-25.2,18-35.5,9.2c-4.6-3.9-6.2-9.2-5.8-15.7c2.6,0.8,5,1.4,7.3,2.3c0.5,0.2,0.8,1.2,0.9,1.8c1.1,5.8,4.9,8.8,10.5,9.9
			c5.3,1.1,9.4-1.1,12.2-5.3c3.5-5.2,5-10.9,2.6-17c-3.1-7.8-14-10.1-19.9-4.1c-1.2,1.3-2.3,1.6-3.9,1
			C185.4,481.9,183.6,481.5,181.6,480.9z"/>
		<path class="st0" d="M42.3,312.8c4.2-0.3,7.7,0.5,11,2.2c9.1,4.5,15.5,22,6.2,32.3c-6,6.7-18.5,10.3-27,7.4
			c-12-4.1-17.8-21.4-10.4-31.8c1.7-2.4,4.1-4.2,6.7-6.8c1,3.2,1.8,5.5,2.3,7.9c0.1,0.5-0.5,1.3-0.9,1.8c-4.3,4.6-5.1,9.7-2.1,15.3
			c2.4,4.6,7.8,7.3,13.3,6.1c3.5-0.8,7.1-2,10-4c4.3-2.8,6-7.3,4.6-12.5c-1.3-5.2-4.2-8.8-9.8-9.7c-0.7-0.1-1.6-0.7-1.8-1.3
			C43.6,317.7,43.1,315.4,42.3,312.8z"/>
		<path class="st0" d="M76.8,430.5c1.4,1.8,2.6,3.4,4,4.9c1.1,1.2,1,2.1-0.4,3c-1.1,0.7-2.1,1.6-3.4,2.7c-1.8-2.1-3.5-4.1-5.4-6.4
			c-3.2,2.6-6.3,5-9.5,7.7c-1.8-2.2-3.4-4.1-5.2-6.4c3.2-2.6,6.3-5.1,9.5-7.8c-1.8-2.2-3.3-4.2-5-6.1c-1.1-1.2-1.1-2.1,0.3-3
			c1.1-0.7,2.1-1.6,3.4-2.7c2.1,2.5,4.1,5,6.2,7.5c0.6-0.4,1.2-0.6,1.6-1c5.8-4.7,11.6-9.5,17.4-14.2c2.9-2.4,3.1-3.9,0.7-6.9
			c-1-1.2-1.9-2.5-3.1-4c1.7-1.4,3.1-2.7,4.7-3.8c0.4-0.3,1.5,0,1.8,0.3c1.8,2.1,3.6,4.2,5.1,6.4c3.1,4.8,2.4,9-2.1,12.8
			c-5.9,5-12,9.8-18,14.7C78.7,428.9,77.9,429.6,76.8,430.5z"/>
		<path class="st0" d="M474.9,210.2c-1-3.4-2.3-6.5-3-9.8c-1-4.8,1.3-8.5,6.2-10.3c8-2.8,16-5.5,24-8.3c0.5-0.2,0.9-0.4,1.6-0.7
			c-0.7-2-1.2-4-2-5.8c-0.6-1.6-0.2-2.3,1.3-2.7c1.3-0.3,2.5-0.8,4.2-1.4c0.7,2.1,1.5,4.1,2.1,6.1c0.4,1.3,1,1.7,2.4,1.2
			c2.6-1,5.3-1.8,8-2.8c1.3-0.5,2.1-0.4,2.6,1.1c0.5,1.9,1.2,3.8,2,6c-3.9,1.4-7.6,2.7-11.6,4.1c1,3.1,2,6.1,3.1,9.4
			c-1.9,0.7-3.8,1.4-6,2.2c-1.1-3.2-2.2-6.2-3.4-9.5c-5.5,1.9-10.9,3.7-16.2,5.5c-2.5,0.9-5,1.7-7.5,2.6c-2.6,1-3.3,2.4-2.6,5
			c0,0.1,0,0.2,0.1,0.2C481.9,208.7,481.9,208.7,474.9,210.2z"/>
		<path class="st0" d="M13.2,306.7c-3.6,0.5-6.9,1-10.2,1.3c-0.7,0.1-1.9-0.5-2-0.9c-0.5-2.2-0.6-4.4-1-6.9c3.4-0.5,6.6-1.1,9.8-1.3
			c2.1-0.2,2.5-1,2-2.9c-0.4-1.7-0.4-3.5-0.7-5.2c-0.3-1.6,0.2-2.4,2-2.6c4.2-0.4,4.1-0.5,4.7,3.7c0.8,5.9,0.8,5.8,6.6,5
			c5.8-0.8,11.5-1.5,17.3-2.2c4.9-0.6,5.9-1.9,5.2-6.7c-0.2-1.3-0.3-2.6-0.4-4.1c2.5-0.3,4.7-0.6,7.4-0.9c0.3,4.1,0.8,7.8,0.7,11.6
			c-0.1,4.2-3.2,7-7.9,7.7c-7.7,1.1-15.5,2-23.2,3.1c-1.1,0.2-2.3,0.4-3.7,0.6c0.3,2.7,0.6,5.3,0.9,7.8c-0.3,0.2-0.4,0.4-0.5,0.4
			c-7.3,1.1-5.5,1.6-6.5-4.7C13.5,308.6,13.3,307.8,13.2,306.7z"/>
		<path class="st0" d="M329.5,43.6c-2.5-0.6-4.9-1.3-7.6-2c0.8-3,1.4-5.7,2.3-8.4c1.1-2.9,3.6-4.3,6.5-4.9c1.9-0.4,3.8-0.6,5.6-1.1
			c7.1-2,9.4-9.6,4.7-15.3c-3-3.6-9.4-5.4-13.6-3.9c-3.3,1.2-5.2,3.7-6.2,7.4c-2.6-0.7-5.1-1.3-7.8-2c1-5.5,3.8-9.3,8.5-11.6
			c9.9-4.9,24.3,0.4,28.4,10.3c3.8,9.1-0.9,19-10.3,21.9c-2.5,0.8-5.7,0.7-7.5,2.3C330.8,37.8,330.5,40.9,329.5,43.6z"/>
		<path class="st0" d="M516.3,336.8c-0.2,0.8-0.3,1.2-0.4,1.6c-0.9,3-1.1,6.9-6.6,4.7c0.5,1.5,0.8,2.4,1.1,3.1
			c2.1,4.2,1.5,8.4-0.3,12.5c-0.2,0.5-1.1,1.1-1.6,1c-1.6-0.3-3.2-0.9-4.7-1.5c-0.4-0.2-0.7-1-0.6-1.5c0-0.7,0.3-1.5,0.6-2.1
			c3.1-7.2-1.7-13.6-8-15.7c-6.9-2.2-13.7-4.5-20.6-6.6c-2.1-0.6-2.4-1.5-1.6-3.4c0.7-1.6,1.1-3.4,1.8-5.3
			C489.1,328,502.6,332.4,516.3,336.8z"/>
		<path class="st0" d="M376,59.5c1.5-2.1,2.7-3.9,4.2-6c17,12,33.9,23.8,51,35.8c-1.2,1.8-2.3,3.4-3.5,5c-1,1.4-1.9,0.2-2.7-0.3
			c-9.5-6.6-18.9-13.3-28.4-19.9c-6.1-4.3-12.1-8.5-18.2-12.8C377.7,60.8,377,60.2,376,59.5z"/>
		<path class="st0" d="M34,252.1c-2.4-0.5-4.5-0.9-7.2-1.4c4.1-20.3,8.1-40.5,12.3-61.1c2.5,0.5,4.7,0.9,7.2,1.4
			C42.2,211.4,38.2,231.4,34,252.1z"/>
		<path class="st0" d="M255.4,509c-0.2-2.2-0.4-4.1-0.4-5.9c0-0.5,1-1.4,1.6-1.5c13.2-1.1,26.4-2.1,39.6-3.1
			c5.7-0.4,11.4-0.9,17.2-1.3c1.1-0.1,2.1-0.1,3.5-0.2c0.2,2.4,0.5,4.5,0.7,7.2C296.8,505.9,276.2,507.4,255.4,509z"/>
		<path class="st0" d="M502.8,161.8c-4,1.9-7.6,3.6-11.3,5.3c-8.6,4-17.2,8-25.7,12.1c-1.6,0.8-2.3,0.5-3-1.1
			c-2.5-5.4-2.6-5.4,2.9-8c10.4-4.9,20.8-9.7,31.1-14.7c2.1-1,3.1-0.7,3.9,1.4C501.2,158.5,502,160,502.8,161.8z"/>
		<path class="st0" d="M326.7,61.3c-3.5-0.9-6.5-1.5-9.4-2.4c-0.5-0.1-1.1-1.2-1-1.8c0.5-2.7,1.2-5.3,2-7.9c0.2-0.6,1.3-1.3,1.8-1.2
			c2.7,0.5,5.3,1.2,7.9,2c0.5,0.1,1.1,1.1,1,1.5C328.5,54.7,327.6,57.9,326.7,61.3z"/>
		<path class="st0" d="M509.5,159.6c-1.3-2.8-2.6-5.3-3.7-7.8c-0.2-0.4,0.3-1.1,0.5-1.6c0.1-0.2,0.4-0.2,0.6-0.3
			c7.7-4,8.2-3.7,11.3,5.7C515.5,156.8,512.6,158.2,509.5,159.6z"/>
		<path class="st1" d="M460.5,378.8c12.6,8.5,25,16.8,37.7,25.4c-3.7,5.1-6.9,10.3-10.8,14.8c-4,4.5-9.6,5.2-15.2,3.9
			c-8-1.9-14.7-6.2-19.6-12.9c-4.1-5.4-4.6-11.4-1.2-17.3C454.1,388,457.3,383.6,460.5,378.8z"/>
		<path class="st1" d="M101.5,103.3c3.8,2.6,5.6,7,4.4,11.2c-1.2,4.4-3.9,7.9-7.8,10.3c-2.6,1.6-5,1.3-7.1-0.6
			c-2.1-1.9-2.5-3.9-1.1-6.8c0.9-1.8,2-3.6,3.4-5.2C96,109.2,98.8,106.3,101.5,103.3z"/>
		<path class="st1" d="M59.3,373.7c3.5-2.9,8.3-3.3,11.9-1c4,2.6,6.6,6.3,7.6,10.9c0.6,2.6-0.4,4.9-2.6,6.2
			c-2.2,1.4-4.4,1.2-6.7-0.6c-0.8-0.7-1.7-1.4-2.2-2.3C64.5,382.5,61.9,378.1,59.3,373.7z"/>
		<path class="st1" d="M246.6,28.7c-7.9,1.1-15.6,2.2-23.5,3.3c-0.3-4.5,1.1-8,4.4-10.5c4-3.1,8.5-3.6,13.1-1.5
			C244.1,21.6,245.9,24.6,246.6,28.7z"/>
		<path class="st1" d="M503.5,264c-10.1,0.8-17.4-7.4-14.6-16.5c0.7-2.2,2.3-4.5,4.1-6c4.9-4.2,14-4.6,19.5-1.3
			c7.8,4.7,8.2,16,0.5,20.8c-2.8,1.7-6.2,2.4-9.4,3.5C503.6,264.4,503.5,264.2,503.5,264z"/>
		<path class="st1" d="M154.2,459.2c8.1,0,14,6.7,13,14.3c-0.8,5.7-3.5,10.4-8.4,13.5c-4.5,3-9.1,2.6-13.5-0.4
			c-4.4-2.9-6.3-7.1-5.3-12.2c1.4-7,4.9-12.7,12.3-14.9C153,459.3,153.9,459.2,154.2,459.2z"/>
	</g>
</g>
</svg>
