<?xml version="1.0" encoding="utf-8"?>
<!-- Generator: Adobe Illustrator 24.0.3, SVG Export Plug-In . SVG Version: 6.00 Build 0)  -->
<svg version="1.1" id="Layer_1" xmlns="http://www.w3.org/2000/svg" xmlns:xlink="http://www.w3.org/1999/xlink" x="0px" y="0px"
	 width="98.9px" height="98.9px" viewBox="0 0 98.9 98.9" style="enable-background:new 0 0 98.9 98.9;" xml:space="preserve">
<style type="text/css">
	.st0{fill:#F93C5A;}
</style>
<g>
	<g>
		<path class="st0" d="M8.1,45.1c-0.2,2.4-2.2,3.7-4.4,3.5s-3.9-2-3.6-4.3c0.2-2.4,2.2-3.7,4.4-3.5C6.8,41,8.4,42.8,8.1,45.1z
			 M7.4,45.1c0.2-1.8-1-3.2-2.9-3.4s-3.4,1-3.6,2.8s1,3.2,2.9,3.4C5.7,48,7.2,46.8,7.4,45.1z"/>
		<path class="st0" d="M6,37.6l-4.3-1.5L2,35.4l4.4,1.5C7.8,37.4,9,37,9.5,35.6s-0.2-2.5-1.7-3l-4.4-1.5l0.3-0.8L8,31.8
			c2.1,0.7,2.7,2.3,2.2,4C9.6,37.5,8.1,38.3,6,37.6z"/>
		<path class="st0" d="M8.9,22.4l-1.3,2.1l6,3.5l-0.4,0.7l-6-3.5L6,27.3L5.3,27l2.9-5L8.9,22.4z"/>
		<path class="st0" d="M19.5,20.3l-3.7-0.8l-1.5,1.7l2.5,2.2L16.3,24l-5.8-5.1l2.1-2.4c1.1-1.3,2.4-1.2,3.3-0.4
			c0.8,0.7,1.1,1.6,0.4,2.7l3.9,0.8L19.5,20.3z M13.2,17l-1.6,1.8l2.1,1.9l1.6-1.8c0.7-0.8,0.7-1.6,0-2.2
			C14.7,16.1,13.9,16.2,13.2,17z"/>
		<path class="st0" d="M22.9,17.3l-0.6,0.5l-5-5.9l0.6-0.5L22.9,17.3z"/>
		<path class="st0" d="M31.5,11.7L30.9,12l-0.7-1.3c0,1.1-0.6,2.2-1.7,2.9c-2,1.2-4.1,0.4-5.3-1.6s-0.7-4.2,1.3-5.4
			c1.6-0.9,3.3-0.7,4.5,0.5l-0.7,0.4c-0.9-0.9-2.2-1-3.4-0.3C23.3,8.1,23,9.9,24,11.5c1,1.7,2.7,2.2,4.2,1.3
			c1.4-0.8,1.9-2.3,1.1-3.9l-2.2,1.3l-0.4-0.6l2.9-1.7L31.5,11.7z"/>
		<path class="st0" d="M40.2,8.7l-0.8,0.2l-1-3.4l-4.3,1.3l1,3.4l-0.8,0.2L32.1,3l0.8-0.2l1,3.3l4.3-1.3l-1-3.3L38,1.3L40.2,8.7z"/>
		<path class="st0" d="M47.6,0.8L45.2,1l0.7,6.9L45,8l-0.7-6.9l-2.5,0.2l-0.1-0.8L47.5,0L47.6,0.8z"/>
		<path class="st0" d="M53.7,8.2C51.3,8,50,6,50.2,3.8s2-3.9,4.3-3.6c2.4,0.2,3.7,2.2,3.5,4.4S56,8.4,53.7,8.2z M53.7,7.4
			c1.8,0.2,3.2-1,3.4-2.9s-1-3.4-2.8-3.6s-3.2,1-3.4,2.9S52,7.2,53.7,7.4z"/>
		<path class="st0" d="M61.2,6l1.5-4.3L63.4,2l-1.5,4.4c-0.5,1.5-0.1,2.7,1.3,3.2s2.5-0.2,3-1.7l1.5-4.4l0.8,0.3L67,8.1
			c-0.7,2.1-2.3,2.8-4,2.2C61.3,9.6,60.4,8.2,61.2,6z"/>
		<path class="st0" d="M76.4,8.9l-2.1-1.3l-3.5,6l-0.7-0.4l3.5-6L71.4,6l0.4-0.7l4.9,2.9L76.4,8.9z"/>
		<path class="st0" d="M78.5,19.5l0.8-3.7l-1.7-1.5l-2.2,2.5l-0.6-0.5l5.1-5.8l2.4,2.1c1.3,1.1,1.2,2.4,0.4,3.3
			C82,16.7,81.1,17,80,16.3l-0.8,3.9L78.5,19.5z M81.8,13.2L80,11.6l-1.9,2.1l1.8,1.6c0.8,0.7,1.6,0.7,2.2,0
			C82.6,14.7,82.6,13.9,81.8,13.2z"/>
		<path class="st0" d="M81.5,22.8L81,22.2l5.9-5l0.5,0.6L81.5,22.8z"/>
		<path class="st0" d="M87.2,31.5l-0.4-0.6l1.3-0.7c-1.1,0-2.2-0.6-2.9-1.7c-1.2-2-0.4-4.1,1.5-5.3c2-1.2,4.2-0.8,5.4,1.3
			c0.9,1.6,0.7,3.3-0.5,4.5l-0.4-0.7c0.9-0.9,1-2.2,0.3-3.4c-0.9-1.6-2.7-1.9-4.3-0.9c-1.7,1-2.2,2.7-1.3,4.2
			c0.8,1.4,2.3,1.9,3.9,1.1l-1.3-2.2l0.6-0.4l1.7,2.9L87.2,31.5z"/>
		<path class="st0" d="M90.2,40.2L90,39.4l3.4-1L92,34.1l-3.4,1l-0.2-0.8l7.4-2.3l0.2,0.8l-3.3,1l1.3,4.3l3.3-1l0.2,0.8L90.2,40.2z"
			/>
		<path class="st0" d="M98.1,47.6l-0.2-2.5L91,45.8L90.8,45l6.9-0.7l-0.2-2.5l0.8-0.1l0.6,5.7L98.1,47.6z"/>
		<path class="st0" d="M90.7,53.6c0.2-2.4,2.2-3.7,4.4-3.5c2.2,0.2,3.9,2,3.6,4.3c-0.2,2.4-2.2,3.7-4.4,3.5
			C92.1,57.7,90.5,56,90.7,53.6z M91.4,53.7c-0.2,1.8,1,3.2,3,3.4c1.9,0.2,3.4-1,3.6-2.8s-1-3.2-3-3.4
			C93.1,50.7,91.6,51.9,91.4,53.7z"/>
		<path class="st0" d="M92.8,61.1l4.3,1.5l-0.3,0.8l-4.4-1.5c-1.5-0.5-2.7-0.1-3.2,1.3c-0.5,1.4,0.2,2.5,1.7,3l4.4,1.5L95,68.5
			L90.7,67c-2.1-0.7-2.8-2.3-2.2-4C89.3,61.2,90.7,60.4,92.8,61.1z"/>
		<path class="st0" d="M90,76.4l1.2-2.1l-6-3.5l0.4-0.7l6,3.5l1.2-2.1l0.7,0.4l-2.9,5L90,76.4z"/>
		<path class="st0" d="M79.4,78.5l3.7,0.8l1.5-1.7l-2.5-2.2l0.5-0.6l5.8,5.1l-2.1,2.4c-1.1,1.3-2.4,1.2-3.3,0.4
			c-0.7-0.7-1-1.6-0.4-2.7l-3.9-0.8L79.4,78.5z M85.7,81.8l1.6-1.8l-2.2-1.9l-1.6,1.8c-0.7,0.8-0.6,1.6,0,2.2
			C84.3,82.6,85,82.6,85.7,81.8z"/>
		<path class="st0" d="M76.1,81.5l0.6-0.5l5,5.9l-0.6,0.5L76.1,81.5z"/>
		<path class="st0" d="M67.5,87.2l0.6-0.4l0.8,1.3c0-1.1,0.6-2.2,1.7-2.9c2-1.2,4.1-0.4,5.3,1.5c1.2,2,0.8,4.2-1.3,5.4
			c-1.6,0.9-3.3,0.7-4.5-0.5l0.7-0.4c0.9,0.9,2.2,1,3.4,0.3c1.6-0.9,1.9-2.7,0.9-4.3c-1-1.7-2.7-2.2-4.3-1.3
			c-1.4,0.8-1.9,2.4-1.1,3.9l2.2-1.3l0.4,0.6l-2.9,1.7L67.5,87.2z"/>
		<path class="st0" d="M58.7,90.2l0.8-0.2l1,3.4l4.3-1.3l-1-3.4l0.8-0.2l2.3,7.4L66.1,96l-1-3.3L60.8,94l1,3.3L61,97.6L58.7,90.2z"
			/>
		<path class="st0" d="M51.4,98.1l2.5-0.2L53.1,91l0.8-0.1l0.7,6.9l2.5-0.2l0.1,0.8L51.5,99L51.4,98.1z"/>
		<path class="st0" d="M45.3,90.7c2.4,0.2,3.7,2.2,3.5,4.4c-0.2,2.2-2,3.9-4.3,3.6c-2.4-0.2-3.7-2.2-3.5-4.4
			C41.2,92.1,42.9,90.5,45.3,90.7z M45.2,91.5c-1.8-0.2-3.2,1-3.4,3c-0.2,1.9,1,3.4,2.8,3.6s3.2-1,3.4-3S47,91.7,45.2,91.5z"/>
		<path class="st0" d="M37.8,92.9l-1.5,4.3l-0.8-0.3l1.5-4.4c0.5-1.5,0.1-2.7-1.3-3.2c-1.4-0.5-2.5,0.2-3,1.7l-1.5,4.4l-0.8-0.3
			l1.5-4.3c0.7-2.1,2.3-2.8,4-2.2C37.7,89.3,38.5,90.8,37.8,92.9z"/>
		<path class="st0" d="M22.6,90.1l2.1,1.2l3.5-6l0.7,0.4l-3.5,6l2.1,1.2l-0.4,0.7l-5-2.9L22.6,90.1z"/>
		<path class="st0" d="M20.4,79.5l-0.8,3.7l1.7,1.5l2.2-2.5l0.6,0.5L19,88.6l-2.4-2.1c-1.3-1.1-1.2-2.4-0.5-3.3
			c0.7-0.8,1.6-1.1,2.7-0.4l0.8-3.9L20.4,79.5z M17.1,85.9l1.8,1.6l1.9-2.2L19,83.7c-0.8-0.7-1.6-0.6-2.2,0
			C16.3,84.4,16.3,85.1,17.1,85.9z"/>
		<path class="st0" d="M17.4,76.2l0.5,0.6l-5.9,5l-0.5-0.6L17.4,76.2z"/>
		<path class="st0" d="M11.7,67.6l0.4,0.6L10.8,69c1.1,0,2.2,0.6,2.9,1.7c1.2,2,0.4,4.1-1.5,5.3c-2,1.2-4.2,0.8-5.4-1.2
			c-0.9-1.6-0.8-3.3,0.5-4.5L7.7,71c-0.9,0.9-1,2.2-0.3,3.4c0.9,1.6,2.7,1.9,4.3,0.9s2.2-2.7,1.3-4.3c-0.8-1.4-2.4-1.9-3.9-1
			l1.3,2.2l-0.6,0.4l-1.7-2.9L11.7,67.6z"/>
		<path class="st0" d="M8.7,58.9l0.2,0.8l-3.4,1L6.9,65l3.4-1l0.2,0.8L3.1,67l-0.2-0.8l3.3-1l-1.3-4.3l-3.3,1l-0.2-0.8L8.7,58.9z"/>
		<path class="st0" d="M0.7,51.5L1,54l6.9-0.7L8,54.1l-6.9,0.7l0.3,2.5l-0.8,0.1L0,51.6L0.7,51.5z"/>
	</g>
</g>
</svg>
