<?xml version="1.0" encoding="utf-8"?>
<!-- Generator: Adobe Illustrator 25.0.1, SVG Export Plug-In . SVG Version: 6.00 Build 0)  -->
<svg version="1.1" id="Layer_1" xmlns="http://www.w3.org/2000/svg" xmlns:xlink="http://www.w3.org/1999/xlink" x="0px" y="0px"
	 viewBox="0 0 16 16" style="enable-background:new 0 0 16 16;" xml:space="preserve">
<style type="text/css">
	.st0{fill-rule:evenodd;clip-rule:evenodd;fill:#F93C5A;}
	.st1{fill:#F93C5A;}
</style>
<path class="st0" d="M8,3c2.8,0,5,2.2,5,5c0,2.8-2.2,5-5,5c-2.8,0-5-2.2-5-5c0-0.7,0.2-1.4,0.5-2.1c0.1-0.3,0-0.5-0.3-0.7
	c-0.2-0.1-0.5,0-0.6,0.2c-1.4,3-0.1,6.6,2.9,8s6.6,0.1,8-2.9s0.1-6.6-2.9-8C9.7,2.2,8.9,2,8,2V3z"/>
<path class="st1" d="M8,4.5V0.5c0-0.1-0.1-0.2-0.3-0.2c-0.1,0-0.1,0-0.2,0.1l-2.4,2c-0.1,0.1-0.1,0.2,0,0.4c0,0,0,0,0,0l2.4,2
	c0.1,0.1,0.3,0.1,0.4,0C8,4.6,8,4.5,8,4.5z"/>
</svg>
