<?xml version="1.0" encoding="utf-8"?>
<!-- Generator: Adobe Illustrator 25.0.1, SVG Export Plug-In . SVG Version: 6.00 Build 0)  -->
<svg version="1.1" id="Layer_1" xmlns="http://www.w3.org/2000/svg" xmlns:xlink="http://www.w3.org/1999/xlink" x="0px" y="0px"
	 viewBox="0 0 43.8 50" style="enable-background:new 0 0 43.8 50;" xml:space="preserve">
<style type="text/css">
	.st0{fill:#F93C5A;}
</style>
<g>
	<path class="st0" d="M19.2,24.9c0-0.4-0.2-0.7-0.5-0.9l-5.4-3.2c-0.3-0.2-0.7-0.2-1,0l-5.4,3.3c-0.3,0.2-0.5,0.5-0.5,0.9
		s0.2,0.7,0.5,0.9l5.4,3.2c0.2,0.1,0.3,0.1,0.5,0.1s0.4,0,0.5-0.1l5.4-3.2C19,25.6,19.2,25.3,19.2,24.9z M12.8,27l-3.5-2.1l3.5-2.1
		l3.5,2.1L12.8,27z"/>
	<path class="st0" d="M21.1,34.5L21,28.2c0-0.4-0.2-0.7-0.5-0.8c-0.3-0.2-0.7-0.2-1,0L14,30.5c-0.3,0.2-0.5,0.5-0.5,0.9l0.1,6.3
		c0,0.4,0.2,0.7,0.5,0.8c0.3,0.2,0.7,0.2,1,0l5.5-3.1C20.9,35.2,21.1,34.8,21.1,34.5z M15.6,35.9l-0.1-4l3.5-2l0.1,4L15.6,35.9z"/>
	<path class="st0" d="M29.7,30.4l-5.5-3.1c-0.3-0.2-0.7-0.2-1,0s-0.5,0.5-0.5,0.8l-0.1,6.3c0,0.4,0.2,0.7,0.5,0.9l5.5,3.1
		c0.3,0.2,0.7,0.2,1,0s0.5-0.5,0.5-0.8l0.1-6.3C30.2,31,30,30.6,29.7,30.4z M28.2,35.9l-3.5-2l0.1-4l3.5,2L28.2,35.9z"/>
	<path class="st0" d="M37,25.9c0.3-0.2,0.5-0.5,0.5-0.9s-0.2-0.7-0.5-0.9L31.6,21c-0.3-0.2-0.7-0.2-1,0l-5.4,3.2
		c-0.3,0.2-0.5,0.5-0.5,0.9s0.2,0.7,0.5,0.9l5.4,3.2c0.2,0.1,0.3,0.1,0.5,0.1s0.4,0,0.5-0.1L37,25.9z M27.6,25.1l3.5-2.1l3.5,2.1
		l-3.5,2.1L27.6,25.1z"/>
	<path class="st0" d="M22.7,15.5l0.1,6.3c0,0.4,0.2,0.7,0.5,0.8c0.3,0.2,0.7,0.2,1,0l5.5-3.1c0.3-0.2,0.5-0.5,0.5-0.9l-0.1-6.3
		c0-0.4-0.2-0.7-0.5-0.8c-0.3-0.2-0.7-0.2-1,0l-5.5,3.1C22.9,14.8,22.7,15.2,22.7,15.5z M28.3,14.2l0.1,4l-3.5,2l-0.1-4L28.3,14.2z"
		/>
	<path class="st0" d="M14.1,19.6l5.5,3.1c0.3,0.2,0.7,0.2,1,0s0.5-0.5,0.5-0.8l0.1-6.3c0-0.4-0.2-0.7-0.5-0.9l-5.5-3.1
		c-0.3-0.2-0.7-0.2-1,0s-0.5,0.5-0.5,0.8l-0.1,6.3C13.6,19,13.8,19.4,14.1,19.6z M15.7,14.1l3.5,2l-0.1,4l-3.5-2L15.7,14.1z"/>
	<path class="st0" d="M21.1,8.9v3.7c0,0.6,0.4,1,1,1s1-0.4,1-1V8.9l4.2-4.2c0.4-0.4,0.4-1,0-1.4s-1-0.4-1.4,0l-2.8,2.8V1
		c0-0.6-0.4-1-1-1s-1,0.4-1,1v5.1l-2.8-2.8c-0.4-0.4-1-0.4-1.4,0s-0.4,1,0,1.4L21.1,8.9z"/>
	<path class="st0" d="M0.7,13.7l4.4,2.5l-3.8,1c-0.5,0.1-0.9,0.7-0.7,1.2c0.1,0.5,0.7,0.9,1.2,0.7l5.8-1.5l3.2,1.8
		c0.5,0.3,1.1,0.1,1.4-0.4c0.3-0.5,0.1-1.1-0.4-1.4l-3.2-1.8L7,10C6.9,9.5,6.3,9.2,5.8,9.3S5,10,5.1,10.5l1,3.8L1.7,12
		c-0.5-0.3-1.1-0.1-1.4,0.4C0.1,12.8,0.2,13.4,0.7,13.7z"/>
	<path class="st0" d="M10.6,30.2L7.4,32l-5.8-1.5c-0.5-0.1-1.1,0.2-1.2,0.7s0.2,1.1,0.7,1.2l3.8,1L0.5,36c-0.5,0.3-0.6,0.9-0.4,1.4
		C0.4,37.9,1,38,1.5,37.8l4.4-2.5l-1,3.7c-0.1,0.5,0.2,1.1,0.7,1.2c0.5,0.1,1.1-0.2,1.2-0.7l1.6-5.8l3.2-1.8
		c0.5-0.3,0.6-0.9,0.4-1.4C11.7,30.1,11,29.9,10.6,30.2z"/>
	<path class="st0" d="M22.7,41.1v-3.7c0-0.6-0.4-1-1-1s-1,0.4-1,1v3.7l-4.2,4.2c-0.4,0.4-0.4,1,0,1.4s1,0.4,1.4,0l2.8-2.8V49
		c0,0.6,0.4,1,1,1s1-0.4,1-1v-5.1l2.8,2.8c0.4,0.4,1,0.4,1.4,0s0.4-1,0-1.4L22.7,41.1z"/>
	<path class="st0" d="M43.1,36.3l-4.4-2.5l3.8-1c0.5-0.1,0.9-0.7,0.7-1.2c-0.1-0.5-0.7-0.8-1.2-0.7l-5.8,1.5L33,30.6
		c-0.5-0.3-1.1-0.1-1.4,0.4c-0.3,0.5-0.1,1.1,0.4,1.4l3.2,1.8l1.6,5.8c0.1,0.5,0.7,0.8,1.2,0.7s0.8-0.7,0.7-1.2l-1-3.8l4.4,2.5
		c0.5,0.3,1.1,0.1,1.4-0.4C43.7,37.2,43.6,36.6,43.1,36.3z"/>
	<path class="st0" d="M33.2,19.8l3.2-1.8l5.8,1.5c0.5,0.1,1.1-0.2,1.2-0.7c0.1-0.5-0.2-1.1-0.7-1.2l-3.8-1l4.4-2.5
		c0.5-0.3,0.6-0.9,0.4-1.4c-0.3-0.5-0.9-0.6-1.4-0.4l-4.4,2.5l1-3.8c0.1-0.5-0.2-1.1-0.7-1.2c-0.5-0.1-1.1,0.2-1.2,0.7l-1.6,5.8
		l-3.2,1.8c-0.5,0.3-0.6,0.9-0.4,1.4C32.1,19.9,32.8,20.1,33.2,19.8z"/>
</g>
</svg>
