<?xml version="1.0" encoding="utf-8"?>
<!-- Generator: Adobe Illustrator 24.0.3, SVG Export Plug-In . SVG Version: 6.00 Build 0)  -->
<svg version="1.1" id="Layer_1" xmlns="http://www.w3.org/2000/svg" xmlns:xlink="http://www.w3.org/1999/xlink" x="0px" y="0px"
	 width="22px" height="22px" viewBox="0 0 22 22" style="enable-background:new 0 0 22 22;" xml:space="preserve">
<style type="text/css">
	.Drop_x0020_Shadow{fill:none;}
	.Outer_x0020_Glow_x0020_5_x0020_pt{fill:none;}
	.Blue_x0020_Neon{fill:none;stroke:#8AACDA;stroke-width:7;stroke-linecap:round;stroke-linejoin:round;}
	.Chrome_x0020_Highlight{fill:url(#SVGID_1_);stroke:#FFFFFF;stroke-width:0.3629;stroke-miterlimit:1;}
	.Jive_GS{fill:#FFDD00;}
	.Alyssa_GS{fill:#A6D0E4;}
	.st0{fill:#FFFFFF;}
</style>
<linearGradient id="SVGID_1_" gradientUnits="userSpaceOnUse" x1="-169.0673" y1="-169" x2="-169.0673" y2="-170">
	<stop  offset="0" style="stop-color:#656565"/>
	<stop  offset="0.618" style="stop-color:#1B1B1B"/>
	<stop  offset="0.6292" style="stop-color:#545454"/>
	<stop  offset="0.9831" style="stop-color:#3E3E3E"/>
</linearGradient>
<g id="Group_46" transform="translate(-1543.563 -1316.409)">
	<path id="Path_50" class="st0" d="M1554.6,1316.4c-6.1,0-11,4.9-11,11s4.9,11,11,11s11-4.9,11-11l0,0
		C1565.6,1321.3,1560.6,1316.4,1554.6,1316.4z M1554.6,1335.7c-4.6,0-8.3-3.7-8.3-8.3c0-4.6,3.7-8.3,8.3-8.3c4.6,0,8.3,3.7,8.3,8.3
		C1562.8,1332,1559.1,1335.7,1554.6,1335.7L1554.6,1335.7z M1553.2,1328.8h-2.8c-0.7,0-1.3-0.6-1.4-1.4v0c0-0.7,0.6-1.3,1.4-1.4h8.3
		c0.7,0,1.3,0.5,1.4,1.2c0,0,0,0.1,0,0.1l0,0c0,0.8-0.6,1.4-1.4,1.4L1553.2,1328.8L1553.2,1328.8z"/>
</g>
</svg>
