<?xml version="1.0" encoding="utf-8"?>
<!-- Generator: Adobe Illustrator 27.1.1, SVG Export Plug-In . SVG Version: 6.00 Build 0)  -->
<svg version="1.1" id="Layer_1" xmlns="http://www.w3.org/2000/svg" xmlns:xlink="http://www.w3.org/1999/xlink" x="0px" y="0px"
	 width="49.3px" height="48.4px" viewBox="0 0 49.3 48.4" style="enable-background:new 0 0 49.3 48.4;" xml:space="preserve">
<g id="SNfVOC.tif">
	<g>
		<path d="M9.4,48.4c-2.9-2.9-5.8-5.8-8.7-8.7c4.8-4.9,9.7-10,14.8-15.2C10.3,19.5,5.2,14.4,0,9.3c3.3-3.3,6.2-6.2,9-9
			c5,5,10.2,10,15.7,15.4C30,10.2,34.9,5,39.8,0c3.2,3.2,6.1,6.1,9.5,9.6c-5.1,4.5-10.4,9.3-15.8,14.1c5.6,5.8,10.6,10.8,15.7,16.1
			c-3.2,2.8-6.3,5.6-9.6,8.5c-4.5-4.6-9.5-9.9-14.5-15.1C19.5,38.7,14.4,43.6,9.4,48.4z"/>
	</g>
</g>
</svg>
