<?xml version="1.0" encoding="utf-8"?>
<!-- Generator: Adobe Illustrator 24.0.3, SVG Export Plug-In . SVG Version: 6.00 Build 0)  -->
<svg version="1.1" id="Layer_1" xmlns="http://www.w3.org/2000/svg" xmlns:xlink="http://www.w3.org/1999/xlink" x="0px" y="0px"
	 width="1359.1px" height="379.5px" viewBox="0 0 1359.1 379.5" style="enable-background:new 0 0 1359.1 379.5;"
	 xml:space="preserve">
<style type="text/css">
	.st0{fill:#F93C5A;}
</style>
<g>
	<path class="st0" d="M220.6,213.2V88.8h67.7v110.3c0,20.7,7.8,31.3,24.2,31.3c15.3,0,24.6-10.6,24.6-33.6v-108h66.5v195.5h-66.1
		V262c-11.3,16.4-28.2,26.2-48.9,26.2C247.2,288.2,220.6,261.3,220.6,213.2z"/>
	<path class="st0" d="M419.6,88.8h32.1v-45h66.5v45h35.6v57.9h-35.6v42.6c0,30.9,2.7,33.2,35.6,33.2v61.8h-18.4
		c-66.1,0-83.7-21.1-83.7-91.1v-46.5h-32.1L419.6,88.8L419.6,88.8z"/>
	<path class="st0" d="M571,88.8h64.5v34c9-21.1,25.4-34,52-34h19.2v65.7h-33.6c-25.4,0-37.2,12.5-37.2,43v86.8H571V88.8z"/>
	<path class="st0" d="M722.7,88.8h67.7v195.5h-67.7V88.8z M795.1,38.5c0,21.3-17.2,38.5-38.5,38.5c-21.3,0-38.5-17.2-38.5-38.5
		S735.3,0,756.6,0C777.8,0,795.1,17.3,795.1,38.5z"/>
	<path class="st0" d="M1028.5,7.6h65.7v103.1c11.7-16,29.7-25.8,50.8-25.8c41.8,0,69.2,27.4,69.2,74.7v124.8h-67.7V174
		c0-20.3-8.2-31.7-25.4-31.7c-15.3,0-26.2,11-26.2,34.4v107.5h-66.5V7.6H1028.5z"/>
	<path class="st0" d="M1224.9,88.8h32.1v-51l66.5-30.3v81.3h35.6v57.9h-35.6v42.6c0,30.9,2.7,33.2,35.6,33.2v61.8h-18.4
		c-66.1,0-83.7-21.1-83.7-91.1v-46.5h-32.1V88.8z"/>
	<path class="st0" d="M102.9,84.9C43,84.9,0,130.2,0,186.6c0,56.3,43,101.7,102.9,101.7s102.9-45.4,102.9-101.7
		C205.7,130.2,161.5,84.9,102.9,84.9z M103.8,229.3c-23.3,0-42.2-18.9-42.2-42.2s18.9-42.2,42.2-42.2c23.3,0,42.2,18.9,42.2,42.2
		C146,210.4,127.1,229.3,103.8,229.3z"/>
	<path class="st0" d="M946,88.8v21.9c-11-15.6-27.8-25.8-52-25.8c-46.1,0-88.8,38.7-88.8,101.7c0,63.7,43,101.7,87.6,101.7
		c23.5,0,41.5-9.4,52.8-25.8v19.6c0,22.7-12.1,37.9-34,37.9c-18.4,0-30.5-9.8-37.5-24.6L810,325.1c18.8,31.7,53.6,54.4,101.7,54.4
		c67.7,0,100.1-42.6,100.1-98.6v-192H946V88.8z M908.5,229.3c-23.3,0-42.2-18.9-42.2-42.2s18.9-42.2,42.2-42.2s42.2,18.9,42.2,42.2
		C950.7,210.4,931.8,229.3,908.5,229.3z"/>
</g>
</svg>
