<?xml version="1.0" encoding="utf-8"?>
<!-- Generator: Adobe Illustrator 27.4.0, SVG Export Plug-In . SVG Version: 6.00 Build 0)  -->
<svg version="1.1" id="Layer_1" xmlns="http://www.w3.org/2000/svg" xmlns:xlink="http://www.w3.org/1999/xlink" x="0px" y="0px"
	 width="1348px" height="376.3px" viewBox="0 0 1348 376.3" style="enable-background:new 0 0 1348 376.3;" xml:space="preserve">
<g>
	<path d="M218.8,211.4V88.1h67.1v109.4c0,20.6,7.8,31,24.1,31c15.1,0,24.4-10.5,24.4-33.4v-107h65.9v194h-65.6V260
		c-11.3,16.3-27.9,26-48.5,26C245.2,285.9,218.8,259.1,218.8,211.4"/>
	<path d="M416.2,88.1H448V43.5h66v44.6h35.3v57.4H514v42.3c0,30.6,2.7,33,35.3,33V282h-18.2c-65.6,0-83-20.9-83-90.4v-46.2h-31.8
		L416.2,88.1L416.2,88.1z"/>
	<path d="M566.4,88.1h64v33.8c8.9-20.9,25.2-33.8,51.6-33.8h19v65.2h-33.4c-25.2,0-36.9,12.4-36.9,42.7v86h-64.4V88.1H566.4z"/>
	<path d="M788.6,38.2c0,21.1-17.1,38.2-38.2,38.2c-21.1,0-38.2-17.1-38.2-38.2S729.3,0,750.4,0C771.5,0,788.6,17.1,788.6,38.2
		 M716.9,88.1H784v194h-67.1V88.1z"/>
	<path d="M1020.2,7.5h65.2v102.3c11.6-15.9,29.5-25.6,50.4-25.6c41.5,0,68.7,27.2,68.7,74.1V282h-67.1V172.6
		c0-20.2-8.1-31.4-25.2-31.4c-15.1,0-26,10.9-26,34.1V282h-65.9V7.5H1020.2z"/>
	<path d="M1215,88.1h31.8V42.7l65.9-35.3v80.7h35.3v57.4h-35.3v42.3c0,30.6,2.7,33,35.3,33V282h-18.2c-65.6,0-83-20.9-83-90.4v-46.2
		H1215V88.1z"/>
	<path d="M102.9,227.4c-23.1,0-41.9-18.8-41.9-41.9s18.8-41.9,41.9-41.9s41.9,18.8,41.9,41.9S126,227.4,102.9,227.4 M102,84.2
		C42.7,84.2,0,129.2,0,185c0,55.9,42.7,100.9,102,100.9c59.4,0,102-45,102-100.9C204.1,129.2,160.2,84.2,102,84.2"/>
	<path d="M901.1,227.4c-23.1,0-41.9-18.8-41.9-41.9s18.8-41.9,41.9-41.9s41.9,18.8,41.9,41.9S924.3,227.4,901.1,227.4 M938.4,88.1
		v21.7c-10.9-15.5-27.5-25.6-51.6-25.6c-45.8,0-88.1,38.4-88.1,100.9c0,63.2,42.7,100.9,86.9,100.9c23.3,0,41.1-9.3,52.4-25.6v19.4
		c0,22.5-12,37.6-33.8,37.6c-18.2,0-30.3-9.7-37.2-24.4l-63.6,29.5c18.6,31.4,53.1,53.9,100.9,53.9c67.1,0,99.3-42.3,99.3-97.8V88.1
		H938.4z"/>
</g>
</svg>
